# xmcd CD database file
#
# Track frame offsets:
#	150
#	15197
#	30535
#	45700
#	63550
#	75007
#	89505
#	106702
#	118195
#	133597
#	143930
#	156365
#	167835
#	182170
#	196097
#	212365
#
# Disc length: 3042 seconds
#
# Revision: 0
# Processed by: cddbd v1.4PL0 Copyright (c) Steve Scherf et al.
# Submitted via: CDex 1.40Beta8
#
DISCID=c90be010
DTITLE=Cavalo de Pau - Acústico
DYEAR=2000
DGENRE=Forró
TTITLE0=Cara a Cara
TTITLE1=Dá, Moreno
TTITLE2=Ainda Choro (Mar de Solidão)
TTITLE3=Dá Mais, Mainha
TTITLE4=Peneirando
TTITLE5=Tocando Meu Coração
TTITLE6=Não Sai, Não Sai
TTITLE7=Quando Chego no Forró
TTITLE8=Teu Amor
TTITLE9=Raio de Luar
TTITLE10=Tudo Isso é Amor
TTITLE11=Forró Temperado
TTITLE12=Saudade Danada
TTITLE13=Lembrança de Vaqueiro
TTITLE14=Alma Nordestina
TTITLE15=Brincando de Anel
EXTD=YEAR: 2000
EXTT0=
EXTT1=
EXTT2=
EXTT3=
EXTT4=
EXTT5=
EXTT6=
EXTT7=
EXTT8=
EXTT9=
EXTT10=
EXTT11=
EXTT12=
EXTT13=
EXTT14=
EXTT15=
PLAYORDER=
